<?xml version="1.0" standalone="yes"?>

<svg version="1.1" viewBox="0.0 0.0 446.49343832021 412.7007874015748" fill="none" stroke="none" stroke-linecap="square" stroke-miterlimit="10" xmlns="http://www.w3.org/2000/svg" xmlns:xlink="http://www.w3.org/1999/xlink"><clipPath id="p.0"><path d="m0 0l446.49344 0l0 412.70078l-446.49344 0l0 -412.70078z" clip-rule="nonzero"></path></clipPath><g clip-path="url(#p.0)"><path fill="#000000" fill-opacity="0.0" d="m0 0l446.49344 0l0 412.70078l-446.49344 0z" fill-rule="evenodd"></path><path fill="#007faf" d="m6.0955377 96.50394l52.08904 -89.85827l315.78497 0l-52.08902 89.85827z" fill-rule="evenodd"></path><path stroke="#007faf" stroke-width="8.0" stroke-linejoin="round" stroke-linecap="round" d="m6.0955377 96.50394l52.08904 -89.85827l315.78497 0l-52.08902 89.85827z" fill-rule="evenodd"></path><path fill="#ffffff" d="m153.2552 65.9748l-3.546875 -9.078125l-11.453125 0l-3.515625 9.078125l-3.359375 0l11.296875 -28.671875l2.78125 0l11.234375 28.671875l-3.4375 0zm-4.59375 -12.078125l-3.3125 -8.84375q-0.640625 -1.671875 -1.328125 -4.125q-0.4375 1.875 -1.234375 4.125l-3.359375 8.84375l9.234375 0zm20.03125 12.46875q-4.65625 0 -7.203125 -2.859375q-2.546875 -2.859375 -2.546875 -8.09375q0 -5.375 2.578125 -8.296875q2.59375 -2.9375 7.375 -2.9375q1.546875 0 3.09375 0.328125q1.546875 0.328125 2.421875 0.78125l-1.0 2.75q-1.078125 -0.421875 -2.34375 -0.703125q-1.265625 -0.28125 -2.25 -0.28125q-6.515625 0 -6.515625 8.3125q0 3.953125 1.59375 6.0625q1.59375 2.109375 4.71875 2.109375q2.671875 0 5.484375 -1.15625l0 2.875q-2.15625 1.109375 -5.40625 1.109375zm17.402344 -2.671875q0.859375 0 1.65625 -0.125q0.796875 -0.140625 1.265625 -0.265625l0 2.46875q-0.53125 0.265625 -1.5625 0.421875q-1.015625 0.171875 -1.828125 0.171875q-6.21875 0 -6.21875 -6.546875l0 -12.734375l-3.0625 0l0 -1.5625l3.0625 -1.34375l1.375 -4.578125l1.875 0l0 4.96875l6.203125 0l0 2.515625l-6.203125 0l0 12.59375q0 1.9375 0.90625 2.984375q0.921875 1.03125 2.53125 1.03125zm10.449219 2.28125l-3.25 0l0 -21.40625l3.25 0l0 21.40625zm-3.515625 -27.203125q0 -1.125 0.546875 -1.640625q0.546875 -0.515625 1.359375 -0.515625q0.78125 0 1.34375 0.53125q0.578125 0.53125 0.578125 1.625q0 1.09375 -0.578125 1.625q-0.5625 0.53125 -1.34375 0.53125q-0.8125 0 -1.359375 -0.53125q-0.546875 -0.53125 -0.546875 -1.625zm28.867188 16.484375q0 5.234375 -2.640625 8.171875q-2.640625 2.9375 -7.28125 2.9375q-2.875 0 -5.109375 -1.34375q-2.21875 -1.359375 -3.4375 -3.875q-1.203125 -2.515625 -1.203125 -5.890625q0 -5.234375 2.609375 -8.15625q2.625 -2.921875 7.265625 -2.921875q4.5 0 7.140625 2.984375q2.65625 2.984375 2.65625 8.09375zm-16.3125 0q0 4.09375 1.640625 6.25q1.640625 2.140625 4.828125 2.140625q3.171875 0 4.828125 -2.140625q1.65625 -2.140625 1.65625 -6.25q0 -4.09375 -1.65625 -6.203125q-1.65625 -2.125 -4.875 -2.125q-3.1875 0 -4.8125 2.09375q-1.609375 2.09375 -1.609375 6.234375zm36.64453 10.71875l0 -13.84375q0 -2.625 -1.203125 -3.90625q-1.1875 -1.296875 -3.71875 -1.296875q-3.359375 0 -4.921875 1.828125q-1.5625 1.8125 -1.5625 5.984375l0 11.234375l-3.25 0l0 -21.40625l2.640625 0l0.53125 2.921875l0.15625 0q0.984375 -1.578125 2.78125 -2.4375q1.796875 -0.875 4.015625 -0.875q3.859375 0 5.8125 1.875q1.953125 1.859375 1.953125 5.953125l0 13.96875l-3.234375 0z" fill-rule="nonzero"></path><path fill="#f6931e" d="m388.93723 30.698067l49.922913 88.98436l-155.74966 282.4802l-49.922913 -88.984344z" fill-rule="evenodd"></path><path stroke="#f6931e" stroke-width="8.0" stroke-linejoin="round" stroke-linecap="round" d="m388.93723 30.698067l49.922913 88.98436l-155.74966 282.4802l-49.922913 -88.984344z" fill-rule="evenodd"></path><path fill="#ffffff" d="m364.49036 159.57167l-10.165558 -6.1571655l1.6069336 -2.9144745l24.450867 14.809586l-3.7872314 6.868866q-2.5348816 4.597473 -5.4674683 5.7416534q-2.940094 1.1578674 -6.404419 -0.9404297q-4.8420105 -2.9327545 -3.7853394 -8.991409l-14.72348 0.1354065l1.8936157 -3.4344177l13.50769 0.09559631l2.8743896 -5.213211zm2.4477844 1.4825745l-2.195404 3.9817505q-1.6974792 3.078659 -1.2991943 5.2364197q0.3982849 2.1577454 2.7925415 3.6079102q2.4210205 1.4663849 4.29834 0.65042114q1.8772888 -0.8159485 3.6577454 -4.0451355l2.0822449 -3.7765045l-9.336273 -5.6548615zm-27.41397 18.394836q2.2934875 -4.159622 6.0957947 -5.069046q3.7947693 -0.8957367 8.195374 1.7696533q4.4273987 2.68161 5.8059387 6.4917297q1.37854 3.810135 -0.6961365 7.5729523q-1.9464417 3.5302124 -5.351959 4.2053986q-3.3921509 0.6832886 -7.097229 -1.5608368l-1.7522278 -1.0613098l7.121826 -12.916733q-3.282196 -1.8784637 -5.821747 -1.3176117q-2.5471191 0.5745392 -4.131439 3.4479523q-1.6748352 3.0376282 -2.0604553 6.7465973l-2.4745178 -1.4987793q0.1878357 -1.8940125 0.65966797 -3.3969727q0.45846558 -1.5110626 1.5071106 -3.4129944zm17.088684 9.328247q1.244812 -2.2576904 0.54711914 -4.487259q-0.691864 -2.2077942 -3.105011 -3.9797058l-5.4017334 9.797012q2.6350098 1.5960083 4.6900024 1.2344666q2.0474243 -0.34786987 3.2696228 -2.5645142zm-31.663727 17.915283l12.647705 3.079193q1.1708679 0.27111816 5.1523438 1.4962311l0.07543945 -0.13682556q-2.5520935 -2.4583893 -3.8571167 -3.9424286l-8.767548 -10.019531l1.8106384 -3.2839203l21.146362 5.981659l-1.6371155 2.9692078q-7.9052734 -2.36055 -12.0372925 -3.603836q-4.139557 -1.229599 -5.4723206 -1.8543091l-0.07543945 0.13682556q0.851593 0.7530823 2.129181 2.0927277q1.2909546 1.3477478 2.007782 2.1834717l8.61972 9.802231l-1.6974792 3.0786743l-12.361694 -3.0154724q-3.4038696 -0.7840271 -5.545349 -1.6247711l-0.07543945 0.13682556q0.56417847 0.4329834 1.6421509 1.4874573q1.0913391 1.0625763 11.527069 11.745697l-1.6220398 2.9418488l-15.465485 -16.284943l1.8559265 -3.3660126zm-12.940399 23.469727l2.9251404 1.0051117l0.07543945 -0.13682556q-0.95596313 -2.4407654 -0.8017273 -4.2091064q0.16763306 -1.7602234 1.3143616 -3.840042q1.539032 -2.7913208 3.818634 -3.527893q2.2720337 -0.72288513 4.8669434 0.8488159q5.550934 3.3621368 0.81655884 12.595978l-1.6641846 3.2448425l1.1369324 0.68862915q2.16687 1.3124542 3.7115479 0.97036743q1.5504761 -0.3203125 2.6972046 -2.4001312q1.2976379 -2.3534698 1.5227661 -6.1596527l2.609558 0.4124298q-0.033843994 1.8412476 -0.5245056 3.7343597q-0.48483276 1.9148865 -1.3977051 3.5705261q-1.8483582 3.3523254 -4.196533 4.0838623q-2.3482056 0.7315216 -5.55838 -1.2128448l-12.506317 -7.574936l1.1542664 -2.0934906zm5.49115 -5.234497q-1.4635925 2.6544952 -0.87564087 5.018387q0.5937805 2.3856812 3.1485596 3.933075l1.6585693 1.0045776l1.4488525 -2.9189606q1.7430725 -3.4526215 1.6633911 -5.5086517q-0.08721924 -2.0423431 -2.0133362 -3.208969q-1.4980774 -0.9073639 -2.8002625 -0.45491028q-1.302185 0.4524536 -2.230133 2.1354523zm4.071472 33.034378q-0.68652344 1.2451477 -1.4378967 2.1224976l-2.3493652 -1.952301q0.88201904 -1.0172424 1.372406 -1.9066162q1.2523499 -2.2713928 0.33685303 -4.9796906q-0.9154968 -2.7082977 -3.604004 -4.3367004l-9.831177 -5.9546204l1.5692139 -2.846054l18.324768 11.099091l-1.2900696 2.3397827l-3.5785217 -1.7294006l-0.07543945 0.13684082q1.2189941 2.1255035 1.3748169 4.1728973q0.1616211 2.069168 -0.8115845 3.8342743zm-26.405487 8.702118l0.09051514 -0.16418457q-1.7166748 -3.6499023 0.44851685 -7.5769043q2.021881 -3.667038 5.614685 -4.2288055q3.5852356 -0.54808044 8.106232 2.1902313q4.5343933 2.7464294 5.9039917 6.313843q1.3829956 3.575531 -0.63131714 7.2289124q-2.104889 3.8175354 -5.9308777 4.2197876l-0.12069702 0.2189331l1.3787231 0.6708069l1.335144 0.71743774l7.4503174 4.5125427l-1.5692444 2.8460693l-26.015839 -15.757477l1.2749939 -2.312439l2.664856 1.1212463zm2.6627197 -5.961975q-1.5993958 2.9007874 -0.77789307 5.1323547q0.82733154 2.2533264 4.27829 4.3435364l0.5751648 0.34835815q3.9057007 2.365631 6.296112 2.0429688q2.382843 -0.30895996 3.9897766 -3.2234497q1.3730774 -2.4902954 0.20550537 -4.9679565q-1.1541748 -2.469574 -4.6184998 -4.567871q-3.5178223 -2.1306763 -6.034424 -1.9027405q-2.5032349 0.23608398 -3.914032 2.7947998z" fill-rule="nonzero"></path><path fill="#c74a2d" d="m260.3427 402.6378l-98.4957 0.95184326l-155.74054 -282.46365l98.49568 -0.9518204z" fill-rule="evenodd"></path><path stroke="#c74a2d" stroke-width="8.0" stroke-linejoin="round" stroke-linecap="round" d="m260.3427 402.6378l-98.4957 0.95184326l-155.74054 -282.46365l98.49568 -0.9518204z" fill-rule="evenodd"></path><path fill="#ffffff" d="m185.7727 327.36362l-16.983643 21.621704l0.07543945 0.13684082q2.4314423 -1.8034363 5.974777 -3.9525757l15.550537 -9.431976l1.4862366 2.6955261l-24.442307 14.825165l-2.4141693 -4.3785706l15.795395 -20.152374l-0.07543945 -0.1368103l-24.569443 4.2390747l-2.3915558 -4.3375244l24.442307 -14.825134l1.5993958 2.9007874l-15.751114 9.553619q-2.7009583 1.6382446 -6.0115204 3.3358154l0.07543945 0.1368103l26.349579 -4.57016l1.2900848 2.3397827zm-29.197052 -30.754578q4.479309 -2.716858 8.268051 -1.9291077q3.7887573 0.7877197 6.029419 4.851593q1.3881531 2.5176392 1.3170776 5.1717834q-0.09199524 2.6485596 -1.6562805 5.0215454q-1.5718231 2.359314 -4.459976 4.111084q-4.479309 2.716858 -8.2395935 1.9483643q-3.7678375 -0.7821655 -6.008499 -4.8460083q-2.17276 -3.9407043 -0.8938751 -7.802124q1.271347 -3.875122 5.6436768 -6.52713zm7.8762665 14.285034q3.5032196 -2.124817 4.5562744 -4.680725q1.0396729 -2.5477905 -0.49935913 -5.3391113q-1.5314941 -2.777649 -4.163025 -3.1169739q-2.631546 -0.33929443 -6.1481323 1.7936401q-3.5032196 2.124817 -4.508606 4.6700745q-1.0187683 2.5533447 0.5353546 5.37204q1.5390472 2.7913513 4.1153717 3.1276245q2.5687866 0.32260132 6.1121216 -1.8265686zm-6.738495 -29.69635q-0.41493225 -0.7525635 -0.906662 -1.385498q-0.5051117 -0.6248474 -0.8384094 -0.970459l2.1126404 -1.2813721q0.48381042 0.32733154 1.115448 1.1493225q0.6374512 0.8001709 1.0297546 1.5116882q3.0026398 5.4458313 -2.599823 8.843933l-10.897415 6.60968l1.4786835 2.6818542l-1.3371124 0.81100464l-2.628601 -1.9844055l-4.5816193 1.1721497l-0.9053192 -1.6419678l4.251999 -2.5789795l-2.9950867 -5.4321594l2.1527405 -1.3056946l2.9950867 5.432129l10.777084 -6.536682q1.6580048 -1.0056458 2.1163025 -2.3426208q0.43737793 -1.3425598 -0.33969116 -2.7519226zm-3.0930939 -10.334564l1.5692291 2.8460693l-18.31836 11.110748l-1.5692139 -2.8460388l18.318344 -11.110779zm-21.581543 17.198273q-0.9627075 0.58392334 -1.6680145 0.37265015q-0.70529175 -0.2112732 -1.0975952 -0.9227905q-0.37721252 -0.6841736 -0.19419861 -1.4524841q0.17547607 -0.78201294 1.1114502 -1.3497314q0.9359741 -0.567688 1.6697388 -0.3371582q0.72621155 0.21685791 1.1034241 0.901001q0.39230347 0.71151733 0.20173645 1.466156q-0.19056702 0.7546387 -1.1265411 1.3223572zm16.002533 -27.316833l-14.395309 18.225922l-1.6823883 -3.0513l8.631729 -10.621857q3.0563202 -3.679657 4.0646057 -4.6016235l-0.07543945 -0.1368103q-0.9881134 0.34368896 -4.320038 1.0317078q-3.3319092 0.6880493 -14.615448 2.8759155l-1.6823883 -3.0513l22.241394 -3.9956055l1.8332825 3.3249512zm-13.772156 -24.978271l-2.2904968 2.1561432l0.07543945 0.13682556q2.4944 0.34947205 3.8789825 1.3720703q1.3712158 1.030716 2.5179596 3.1105194q1.539032 2.791336 1.0102081 5.230118q-0.5363617 2.4250946 -3.1303406 3.9984436q-5.548996 3.3656616 -10.818298 -5.5439453l-1.8514252 -3.1313782l-1.1365356 0.6893616q-2.1661148 1.3138275 -2.654213 2.8880005q-0.5090103 1.5685883 0.63772583 3.648407q1.297615 2.3534698 4.331154 4.457443l-1.6431656 2.165207q-1.5049286 -0.9496155 -2.8247452 -2.3401642q-1.3407364 -1.3961182 -2.253601 -3.0517578q-1.8483582 -3.3523254 -1.2811432 -5.8509064q0.5672226 -2.4985962 3.7762756 -4.4450073l12.501938 -7.5828857l1.1542816 2.0935059zm1.5861053 7.6013794q-1.4635925 -2.6544952 -3.7108002 -3.2999573q-2.2681274 -0.65104675 -4.821991 0.89797974l-1.6580124 1.0056458l1.6895523 2.7730713q1.9837799 3.3067017 3.7229004 4.2603455q1.7315521 0.93995667 3.6569824 -0.22789001q1.4975586 -0.9083252 1.7734375 -2.3172455q0.2758789 -1.4089355 -0.6520691 -3.0919495zm-11.261772 -20.425262q-0.41493988 -0.7525635 -0.906662 -1.3855133q-0.50510406 -0.6248474 -0.8384018 -0.970459l2.1126251 -1.2813873q0.48381805 0.3273468 1.1154556 1.1493225q0.6374588 0.80018616 1.0297623 1.5117035q3.0026398 5.4458313 -2.5998383 8.843933l-10.897415 6.60968l1.4786911 2.6818695l-1.3371048 0.81100464l-2.628601 -1.9844055l-4.5816193 1.1721344l-0.9053192 -1.6419525l4.251999 -2.5789948l-2.9950943 -5.432144l2.1527405 -1.3057098l2.9950943 5.432144l10.777077 -6.5366974q1.6580124 -1.0056458 2.1163025 -2.3426208q0.4373703 -1.3425598 -0.33969116 -2.7519073zm-3.0930862 -10.334564l1.5692215 2.846054l-18.31836 11.110764l-1.5692139 -2.8460693l18.318352 -11.110748zm-21.581543 17.198242q-0.96271515 0.58392334 -1.6680145 0.37265015q-0.7052994 -0.2112732 -1.0976028 -0.9227905q-0.37721252 -0.68414307 -0.19419098 -1.4524689q0.17547607 -0.78201294 1.1114502 -1.3497162q0.9359741 -0.56770325 1.6697311 -0.33717346q0.72621155 0.21684265 1.1034241 0.9009857q0.39230347 0.71151733 0.20173645 1.4661713q-0.19055939 0.7546387 -1.1265335 1.3223419zm0.16834259 -33.83539q4.479309 -2.716858 8.268059 -1.9291229q3.7887497 0.787735 6.0294113 4.8515778q1.3881531 2.5176697 1.3170776 5.1717987q-0.09198761 2.6485596 -1.6562729 5.0215454q-1.5718307 2.3592987 -4.459976 4.1110687q-4.479309 2.716858 -8.239601 1.9483795q-3.76783 -0.7821655 -6.0084915 -4.8460083q-2.17276 -3.940689 -0.89388275 -7.8021393q1.2713394 -3.875122 5.6436768 -6.5270996zm7.8762665 14.285034q3.5032196 -2.1248322 4.5562744 -4.6807404q1.0396805 -2.5477753 -0.49935913 -5.3391113q-1.5314941 -2.777649 -4.1630325 -3.1169586q-2.6315308 -0.33932495 -6.148117 1.7936096q-3.5032196 2.1248322 -4.5086136 4.6700897q-1.0187683 2.55336 0.53536224 5.372055q1.5390396 2.7913208 4.1153717 3.1276093q2.5687866 0.32260132 6.112114 -1.8265533zm-8.52076 -37.653503l-11.846756 7.185501q-2.246338 1.3624878 -2.761856 3.0811005q-0.53643036 1.713028 0.68575287 3.9296722q1.6220245 2.9418488 3.9408722 3.361267q2.3054733 0.427536 5.8755493 -1.7378387l9.613792 -5.8311157l1.5692139 2.846054l-18.318352 11.110748l-1.2749863 -2.3124237l2.2438812 -1.9817963l-0.07544708 -0.13682556q-1.8257675 -0.042922974 -3.428772 -1.1704102q-1.6163788 -1.1193848 -2.6876678 -3.0623627q-1.8634491 -3.3796997 -1.2019577 -6.063278q0.64811707 -2.6754608 4.1513367 -4.800293l11.953728 -7.250366l1.5616684 2.832367z" fill-rule="nonzero"></path><path fill="#c74a2d" d="m107.29616 118.58005l134.67717 242.83466l-79.52756 44.094482l-134.67717 -242.83466z" fill-rule="evenodd"></path><path fill="#ffffff" d="m81.87101 196.17136l17.438927 -20.746033l-0.075782776 -0.13664246q-2.4872894 1.7006683 -6.108536 3.708496l-15.892494 8.811676l-1.4929123 -2.6918488l24.979774 -13.850174l2.4250412 4.3725586l-16.219147 19.337204l0.07577515 0.13664246l25.032639 -3.4457245l2.4023056 4.331558l-24.979774 13.850174l-1.6065903 -2.89682l16.097473 -8.9253235q2.7603455 -1.5304871 6.141464 -3.1014557l-0.075782776 -0.1366272l-26.846504 3.7189178l-1.2958755 -2.3365784zm29.488785 31.070663q-4.5778046 2.5381775 -8.427567 1.6533508q-3.8497543 -0.8848419 -6.1004944 -4.943115q-1.3943939 -2.5142212 -1.3028793 -5.1197968q0.11274719 -2.5994873 1.7217255 -4.885147q1.6165543 -2.271988 4.5682144 -3.908554q4.5778046 -2.5381927 8.398735 -1.6730957q3.828514 0.87875366 6.079254 4.937027q2.1825333 3.9352875 0.8532257 7.691681q-1.3217316 3.7700653 -5.7902145 6.24765zm-7.911682 -14.265457q-3.5802536 1.9850922 -4.6703186 4.4654236q-1.0764008 2.4727478 0.46955872 5.260254q1.5383835 2.7738342 4.213791 3.1842346q2.6754074 0.4104004 6.2693253 -1.5822601q3.5802536 -1.9850922 4.62175 -4.45636q1.0551605 -2.478836 -0.50595856 -5.2936554q-1.5459595 -2.787506 -4.165222 -3.1933136q-2.611679 -0.39213562 -6.2329254 1.6156769zm6.6424866 29.373642q0.41680145 0.7515259 0.9126129 1.3877869q0.5094757 0.6286926 0.84614563 0.9779968l-2.1590805 1.197113q-0.48996735 -0.33576965 -1.1267853 -1.16185q-0.64289856 -0.8048248 -1.0369644 -1.5153656q-3.0161438 -5.4383545 2.709526 -8.612991l11.137047 -6.174988l-1.4853363 -2.6781921l1.3665085 -0.7576599l2.66053 2.0265808l4.6707535 -1.0175171l0.9093933 1.6397095l-4.345497 2.4093933l3.0085678 5.4246826l-2.2000885 1.2198486l-3.0085602 -5.424698l-11.014053 6.1068115q-1.6944733 0.93951416 -2.170494 2.2396698q-0.45478058 1.3062439 0.32577515 2.7136688zm3.0728455 10.244141l-1.576271 -2.842163l18.72116 -10.380051l1.5762787 2.842163l-18.721169 10.380051zm22.085808 -16.265457q0.9838867 -0.54551697 1.7000732 -0.31729126q0.7161865 0.22821045 1.11026 0.9387512q0.37890625 0.6832123 0.18710327 1.432724q-0.1842041 0.7631836 -1.1407623 1.2935486q-0.9565582 0.53038025 -1.7015686 0.28240967q-0.73742676 -0.23431396 -1.116333 -0.91752625q-0.3940735 -0.7105408 -0.19470215 -1.4463806q0.19937134 -0.7358551 1.1559296 -1.2662354zm-16.481697 26.370148l14.780479 -17.485443l1.6899414 3.0471191l-8.860466 10.183197q-3.1367264 3.5257874 -4.169426 4.4020996l0.075782776 0.1366272q1.007988 -0.30874634 4.4035416 -0.88720703q3.3955536 -0.5784607 14.893555 -2.397766l1.6899567 3.0471191l-22.661858 3.2746582l-1.841507 -3.320404zm13.834068 24.94403l2.346405 -2.0513306l-0.07577515 -0.13665771q-2.5357819 -0.41635132 -3.9373627 -1.4615784q-1.3879089 -1.0527954 -2.539795 -3.1297607q-1.5459595 -2.787506 -0.99020386 -5.168091q0.56333923 -2.3669434 3.2143707 -3.8368225q5.6710052 -3.1443176 10.968674 5.7635193l1.8613892 3.1307373l1.1615295 -0.64404297q2.213745 -1.227417 2.721817 -2.759735q0.52931213 -1.5262451 -0.62257385 -3.60318q-1.3034668 -2.3502502 -4.3751984 -4.506195l1.6877441 -2.079193q1.5245514 0.9770508 2.8575592 2.3818665q1.354248 1.4109192 2.271225 3.0643005q1.8566589 3.3477173 1.2613983 5.7859497q-0.5952606 2.4382324 -3.874878 4.256653l-12.776855 7.084198l-1.1594696 -2.0906372zm-1.5590973 -7.5147095q1.4701843 2.6508484 3.7522888 3.3507996q2.3033447 0.70602417 4.913376 -0.7411194l1.6944733 -0.93951416l-1.6992645 -2.7739563q-1.9947968 -3.3068848 -3.7576294 -4.294739q-1.7552643 -0.9741821 -3.7230377 0.11685181q-1.5304871 0.8486023 -1.8213959 2.2247925q-0.29092407 1.3761902 0.6411896 3.0568848zm11.312424 20.397278q0.41679382 0.7515259 0.9126129 1.3877869q0.5094757 0.6286926 0.84614563 0.9779968l-2.1590881 1.197113q-0.48995972 -0.3357849 -1.1267853 -1.1618652q-0.64289856 -0.8048096 -1.036972 -1.5153503q-3.0161285 -5.4383545 2.7095337 -8.613007l11.137054 -6.174988l-1.4853363 -2.6781921l1.3665009 -0.7576599l2.6605377 2.0265808l4.670746 -1.0175171l0.9093933 1.6397095l-4.3454895 2.4093933l3.0085602 5.4246826l-2.2000885 1.2198486l-3.0085602 -5.4246826l-11.014053 6.1068115q-1.6944733 0.93951416 -2.1704865 2.2396545q-0.4547882 1.3062439 0.32577515 2.713684zm3.0728455 10.244141l-1.5762787 -2.842163l18.72116 -10.380066l1.5762787 2.842163l-18.72116 10.380066zm22.0858 -16.265472q0.9838867 -0.5455017 1.7000732 -0.31729126q0.7161865 0.22821045 1.11026 0.9387512q0.37890625 0.68322754 0.18711853 1.4327393q-0.18421936 0.7631836 -1.1407776 1.2935486q-0.9565582 0.530365 -1.7015686 0.28240967q-0.73742676 -0.23431396 -1.116333 -0.9175415q-0.3940735 -0.7105408 -0.19470215 -1.4463806q0.19937134 -0.73587036 1.1559296 -1.2662354zm-0.41586304 33.238068q-4.5778046 2.5381775 -8.427567 1.6533508q-3.849762 -0.8848572 -6.1004944 -4.943115q-1.3943939 -2.5142212 -1.302887 -5.119812q0.11274719 -2.5994873 1.7217255 -4.885132q1.6165619 -2.2720032 4.568222 -3.9085693q4.5778046 -2.5381775 8.398743 -1.6730957q3.8285065 0.87875366 6.079239 4.937042q2.182541 3.9352722 0.8532257 7.691681q-1.3217316 3.7700806 -5.790207 6.24765zm-7.911682 -14.265442q-3.580246 1.9850769 -4.6703186 4.465393q-1.0764008 2.4727478 0.46955872 5.260254q1.5383759 2.7738342 4.213791 3.1842346q2.675415 0.4104004 6.269333 -1.5822449q3.580246 -1.9851074 4.6217346 -4.45636q1.0551605 -2.4788513 -0.5059509 -5.2936707q-1.5459595 -2.787506 -4.165222 -3.1932983q-2.611679 -0.39215088 -6.2329254 1.6156921zm8.398605 37.24359l12.107269 -6.712921q2.2957306 -1.2728882 2.8327484 -2.9463196q0.55825806 -1.6673584 -0.66941833 -3.880951q-1.6293182 -2.9378052 -3.985962 -3.4177551q-2.3429718 -0.4875183 -5.9915466 1.5354309l-9.825195 5.4476624l-1.5762787 -2.842163l18.721176 -10.380066l1.280716 2.3092651l-2.2977142 1.8814087l0.075790405 0.13665771q1.8575897 0.095581055 3.480667 1.2502747q1.6367493 1.1470642 2.71286 3.0874023q1.8718262 3.375061 1.1792908 5.992279q-0.6788635 2.6096497 -4.2591095 4.594757l-12.2165985 6.7735596l-1.5686951 -2.8285217z" fill-rule="nonzero"></path><path fill="#f6931e" d="m231.70866 310.5549l131.05513 -235.87401l79.30707 44.06299l-131.05511 235.87401z" fill-rule="evenodd"></path><path fill="#ffffff" d="m301.2696 308.40784l-9.658203 -1.3085632l-5.5625916 10.011597l6.2280884 7.4821167l-1.6315918 2.936554l-19.576569 -23.80014l1.3507996 -2.4311829l30.519623 4.104767l-1.6695557 3.0048523zm-12.7890625 -1.8504639l-9.339508 -1.3995972q-1.7726135 -0.25198364 -4.250885 -0.84243774q1.4265137 1.2930908 3.0063171 3.082428l6.0990906 7.2316895l4.4849854 -8.0720825zm20.628265 -11.454285q-2.2614746 4.0701904 -5.997925 4.907776q-3.7364807 0.83758545 -8.312073 -1.7045898q-4.6984863 -2.6105042 -6.0004883 -6.283203q-1.3080444 -3.6939392 1.0141296 -7.873413q0.75128174 -1.3521729 1.7893982 -2.544983q1.0381165 -1.19281 1.8591919 -1.7376099l1.9182129 2.2097168q-0.892395 0.7375488 -1.7529602 1.7072754q-0.86053467 0.96972656 -1.338623 1.8302002q-3.1645203 5.6955566 4.101776 9.732697q3.4555664 1.9199219 6.073517 1.551239q2.6179504 -0.36868286 4.1357117 -3.1003723q1.297699 -2.3355713 1.6529541 -5.3556213l2.513153 1.3963013q-0.07751465 2.423645 -1.6559753 5.2645874zm11.867004 -22.162628l-12.101379 -6.7235107q-2.2946472 -1.2749023 -3.9989624 -0.845459q-1.7103882 0.4081726 -2.9397888 2.620819q-1.646759 2.9638672 -0.78634644 5.2115173q0.8467407 2.2400513 4.507202 4.2738037l9.779449 5.433441l-1.5784607 2.8409424l-26.565704 -14.759888l1.5784912 -2.8409424l8.04483 4.4697266q1.4477844 0.8043823 2.3279724 1.472168l0.09106445 -0.16390991q-0.8892517 -1.5844116 -0.8102417 -3.5603638q0.08657837 -1.989624 1.1869507 -3.9700623q1.9047852 -3.4282532 4.492401 -4.2249146q2.581543 -0.8179016 6.1327515 1.1551208l12.210632 6.7842407l-1.5708618 2.8272705zm6.3840637 -11.490082l-1.5784607 2.8409424l-18.712097 -10.396423l1.5784912 -2.8409424l18.712067 10.396423zm-25.486847 -10.138672q-0.98339844 -0.5463867 -1.1685181 -1.2748566q-0.18511963 -0.72846985 0.20950317 -1.4387054q0.37942505 -0.6829071 1.1170044 -0.91659546q0.7451782 -0.24734497 1.7012634 0.28385925q0.9560852 0.5312042 1.1397095 1.2945709q0.19119263 0.7497101 -0.18826294 1.4326324q-0.3946228 0.7102356 -1.1246033 0.93026733q-0.730011 0.22003174 -1.6860962 -0.3111725zm33.557495 -3.5826569q-2.3070068 4.1521454 -6.1694336 5.152115q-3.8548584 0.98631287 -8.34848 -1.5103455q-4.5209656 -2.5118256 -5.9473877 -6.217926q-1.4264221 -3.7061005 0.66049194 -7.462143q1.9579163 -3.5238647 5.4181824 -4.282547q3.4465942 -0.7662811 7.2299805 1.3357697l1.7892456 0.9941101l-7.1638184 12.893494q3.350891 1.7545013 5.930908 1.13237q2.587616 -0.63578796 4.181244 -3.5040436q1.6847229 -3.0321655 2.05365 -6.6881104l2.526825 1.4039001q-0.1791687 1.8666687 -0.6496887 3.356964q-0.45687866 1.497879 -1.5117188 3.3963928zm-17.44342 -8.690567q-1.2521362 2.2536316 -0.5283203 4.4253845q0.71777344 2.1504974 3.1838684 3.824524l5.433563 -9.779373q-2.6907043 -1.4949646 -4.779022 -1.0822449q-2.0806885 0.39904785 -3.310089 2.6117096zm25.884094 -7.3052826l-22.658264 -3.2940826l1.6922913 -3.0458221l13.329376 2.1327515q4.65152 0.79693604 5.941498 1.2097778l0.07589722 -0.13659668q-0.79522705 -0.6920624 -3.0821838 -3.2675629q-2.2869873 -2.5754852 -9.91275 -11.370407l1.6922913 -3.0458221l14.7659 17.49878l-1.8440552 3.318985zm12.191345 -21.137833q-2.3070068 4.1521454 -6.1694336 5.15213q-3.8548584 0.98631287 -8.34848 -1.5103455q-4.520935 -2.5118408 -5.9473877 -6.2179413q-1.4264221 -3.7060852 0.66049194 -7.462143q1.9579163 -3.5238495 5.4181824 -4.282547q3.4465942 -0.76626587 7.2299805 1.3357849l1.7892456 0.9941101l-7.1638184 12.893494q3.350891 1.7545013 5.930908 1.1323547q2.587616 -0.63578796 4.181244 -3.5040436q1.6847229 -3.0321503 2.05365 -6.6881104l2.526825 1.4039001q-0.1791687 1.866684 -0.6496887 3.356964q-0.45687866 1.4978943 -1.5117188 3.3963928zm-17.44339 -8.690567q-1.2521667 2.2536316 -0.52835083 4.4253845q0.71777344 2.1505127 3.1838684 3.8245392l5.433563 -9.779388q-2.6907043 -1.4949646 -4.7789917 -1.0822449q-2.080719 0.3990631 -3.310089 2.6117096zm36.857452 -27.055283l-12.169678 -6.7614594q-2.2399902 -1.2445374 -3.8912048 -0.9107208q-1.6512146 0.33381653 -2.7667542 2.3415985q-1.472229 2.6497192 -0.6482544 4.769867q0.8179321 2.0989075 3.9730225 3.851883l10.44873 5.805313l-1.5708923 2.8272705l-12.169678 -6.7614594q-2.2399902 -1.2445374 -3.8911743 -0.9107208q-1.6512146 0.33381653 -2.781952 2.3689117q-1.4797974 2.6633759 -0.5723572 4.794159q0.91503906 2.1171265 4.5481873 4.1356964l9.820435 5.456238l-1.5784607 2.8409271l-18.712067 -10.396423l1.2825012 -2.308258l2.8121338 0.9546814l0.07589722 -0.13658142q-0.9256897 -1.5510406 -0.87857056 -3.4374542q0.04711914 -1.8864136 1.056427 -3.7029724q2.4360046 -4.3843384 6.3560486 -3.9759521l0.07589722 -0.13658142q-0.99853516 -1.6451416 -0.9650574 -3.7000122q0.019805908 -2.0624542 1.1505432 -4.0975494q1.7681885 -3.1823883 4.279907 -3.8424683q2.5056763 -0.6813202 6.0841675 1.3069l12.210663 6.7842407l-1.5784607 2.8409271zm9.556152 -16.394943q-2.3070068 4.1521454 -6.1694336 5.152115q-3.8548584 0.98631287 -8.34848 -1.5103455q-4.5209656 -2.5118408 -5.9473877 -6.217926q-1.4264221 -3.7061005 0.66049194 -7.462143q1.9579163 -3.5238647 5.4181824 -4.282547q3.4465942 -0.7662811 7.2299805 1.3357697l1.7892456 0.9941101l-7.1638184 12.893494q3.350891 1.7545013 5.930908 1.13237q2.5875854 -0.63578796 4.181244 -3.5040436q1.6847229 -3.0321655 2.05365 -6.6881104l2.526825 1.4039001q-0.1791687 1.8666687 -0.6496887 3.356964q-0.45687866 1.497879 -1.5117188 3.3963928zm-17.44342 -8.690567q-1.2521362 2.2536316 -0.5283203 4.4253845q0.7177429 2.1504974 3.183838 3.824524l5.4335938 -9.779388q-2.6907349 -1.4949493 -4.779022 -1.0822296q-2.0806885 0.39904785 -3.310089 2.6117096zm30.725739 -16.019333l-12.10141 -6.723526q-2.2946167 -1.2748871 -3.998932 -0.845459q-1.7104187 0.40818024 -2.9397888 2.6208344q-1.6315918 2.936554 -0.79241943 5.1902466q0.8255005 2.2461243 4.47229 4.272293l9.820435 5.4562225l-1.5784607 2.8409424l-18.712097 -10.396423l1.2825012 -2.3082733l2.8121643 0.95469666l0.07589722 -0.13658142q-0.9014282 -1.6269379 -0.77993774 -3.6150208q0.10784912 -1.9956818 1.1854553 -3.9351654q1.8744202 -3.3736115 4.462036 -4.170273q2.5739746 -0.804245 6.152466 1.1839752l12.210663 6.7842407l-1.5708618 2.8272705zm6.173279 -15.807747q0.41738892 -0.7512131 0.6951599 -1.5084991q0.26409912 -0.7648697 0.38250732 -1.2353287l2.15802 1.1989975q-0.025817871 0.5933914 -0.3901062 1.5707321q-0.34301758 0.9712677 -0.7376404 1.6815033q-3.0203247 5.4360275 -8.743225 2.2563934l-11.131653 -6.184738l-1.4873962 2.67704l-1.3658447 -0.75886536l0.31277466 -3.3296585l-3.3341064 -3.4254074l0.91064453 -1.6389999l4.343384 2.4131851l3.0127563 -5.422371l2.1990051 1.2217712l-3.0127258 5.422371l11.0086975 6.116432q1.6936646 0.94099426 3.0489197 0.65724945q1.3491821 -0.3050003 2.1308289 -1.7118073z" fill-rule="nonzero"></path></g></svg>

