<?xml version="1.0" standalone="yes"?>

<svg version="1.1" viewBox="0.0 0.0 470.3595800524934 100.0" fill="none" stroke="none" stroke-linecap="square" stroke-miterlimit="10" xmlns="http://www.w3.org/2000/svg" xmlns:xlink="http://www.w3.org/1999/xlink"><clipPath id="p.0"><path d="m0 0l470.3596 0l0 100.0l-470.3596 0l0 -100.0z" clip-rule="nonzero"></path></clipPath><g clip-path="url(#p.0)"><path fill="#000000" fill-opacity="0.0" d="m0 0l470.3596 0l0 100.0l-470.3596 0z" fill-rule="evenodd"></path><path fill="#000000" fill-opacity="0.0" d="m31.847769 17.170603l72.09449 0l0 37.039368l-72.09449 0z" fill-rule="evenodd"></path><path fill="#007faf" d="m53.727047 41.530605l-1.640625 0l-1.140625 -3.25l-5.03125 0l-1.140625 3.25l-1.578125 0l4.234375 -11.640627l2.0625 0l4.234375 11.640627zm-3.265625 -4.578125l-2.03125 -5.703127l-2.046875 5.703127l4.078125 0zm11.375 4.03125q-0.734375 0.34375 -1.40625 0.546875q-0.65625 0.203125 -1.390625 0.203125q-0.953125 0 -1.75 -0.28125q-0.78125 -0.28125 -1.34375 -0.84375q-0.5625 -0.5625 -0.875 -1.421875q-0.3125 -0.859375 -0.3125 -2.015625q0 -2.140625 1.171875 -3.359375q1.171875 -1.21875 3.109375 -1.21875q0.75 0 1.46875 0.21875q0.71875 0.203125 1.328125 0.515625l0 1.625l-0.078125 0q-0.671875 -0.515625 -1.390625 -0.796875q-0.71875 -0.28125 -1.390625 -0.28125q-1.25 0 -1.984375 0.84375q-0.71875 0.828125 -0.71875 2.453125q0 1.578125 0.703125 2.4375q0.71875 0.84375 2.0 0.84375q0.4375 0 0.890625 -0.109375q0.46875 -0.125 0.84375 -0.3125q0.3125 -0.171875 0.59375 -0.34375q0.28125 -0.1875 0.453125 -0.328125l0.078125 0l0 1.625zm6.4140587 0.46875q-0.421875 0.109375 -0.90625 0.171875q-0.484375 0.078125 -0.875 0.078125q-1.328125 0 -2.03125 -0.71875q-0.6874962 -0.71875 -0.6874962 -2.3125l0 -4.640625l-1.0 0l0 -1.234375l1.0 0l0 -2.500002l1.4687462 0l0 2.500002l3.03125 0l0 1.234375l-3.03125 0l0 3.984375q0 0.6875 0.03125 1.078125q0.03125 0.375 0.21875 0.71875q0.171875 0.3125 0.46875 0.453125q0.296875 0.140625 0.921875 0.140625q0.359375 0 0.75 -0.09375q0.390625 -0.109375 0.5625 -0.1875l0.078125 0l0 1.328125zm3.3515625 -10.109377l-1.65625 0l0 -1.53125l1.65625 0l0 1.53125zm-0.09375 10.187502l-1.46875 0l0 -8.734375l1.46875 0l0 8.734375zm10.34375 -4.359375q0 2.125 -1.09375 3.375q-1.09375 1.234375 -2.9375 1.234375q-1.84375 0 -2.9375 -1.234375q-1.09375 -1.25 -1.09375 -3.375q0 -2.140625 1.09375 -3.375q1.09375 -1.234375 2.9375 -1.234375q1.84375 0 2.9375 1.234375q1.09375 1.234375 1.09375 3.375zm-1.515625 0q0 -1.703125 -0.671875 -2.515625q-0.65625 -0.828125 -1.84375 -0.828125q-1.1875 0 -1.859375 0.828125q-0.65625 0.8125 -0.65625 2.515625q0 1.640625 0.65625 2.484375q0.671875 0.84375 1.859375 0.84375q1.171875 0 1.84375 -0.828125q0.671875 -0.84375 0.671875 -2.5zm11.0859375 4.359375l-1.46875 0l0 -4.96875q0 -0.609375 -0.078125 -1.125q-0.0625 -0.53125 -0.25 -0.828125q-0.203125 -0.328125 -0.578125 -0.484375q-0.359375 -0.171875 -0.9375 -0.171875q-0.609375 0 -1.265625 0.296875q-0.65625 0.296875 -1.25 0.765625l0 6.515625l-1.46875 0l0 -8.734375l1.46875 0l0 0.96875q0.6875 -0.5625 1.421875 -0.875q0.734375 -0.328125 1.5 -0.328125q1.421875 0 2.15625 0.859375q0.75 0.84375 0.75 2.4375l0 5.671875z" fill-rule="nonzero"></path><path fill="#000000" fill-opacity="0.0" d="m170.06299 17.170603l93.165344 0l0 37.039368l-93.165344 0z" fill-rule="evenodd"></path><path fill="#f6931e" d="m197.75505 41.530605l-2.0 0l-3.890625 -4.625l-2.1875 0l0 4.625l-1.546875 0l0 -11.640627l3.265625 0q1.046875 0 1.75 0.140625q0.703125 0.140625 1.265625 0.484375q0.640625 0.40625 0.984375 1.015625q0.359375 0.5937519 0.359375 1.5312519q0 1.25 -0.640625 2.109375q-0.625 0.84375 -1.734375 1.265625l4.375 5.09375zm-3.609375 -8.359375q0 -0.5 -0.1875 -0.890625q-0.171875 -0.3906269 -0.578125 -0.6562519q-0.328125 -0.21875 -0.796875 -0.3125q-0.453125 -0.09375 -1.078125 -0.09375l-1.828125 0l0 4.390627l1.5625 0q0.734375 0 1.28125 -0.125q0.546875 -0.125 0.9375 -0.484375q0.34375 -0.328125 0.515625 -0.75q0.171875 -0.421875 0.171875 -1.078125zm12.296875 4.140625l-6.421875 0q0 0.8125 0.234375 1.40625q0.25 0.59375 0.671875 0.984375q0.40625 0.375 0.953125 0.5625q0.5625 0.1875 1.234375 0.1875q0.890625 0 1.796875 -0.359375q0.90625 -0.359375 1.28125 -0.703125l0.078125 0l0 1.609375q-0.734375 0.3125 -1.515625 0.53125q-0.765625 0.203125 -1.625 0.203125q-2.171875 0 -3.390625 -1.171875q-1.21875 -1.1875 -1.21875 -3.34375q0 -2.140625 1.171875 -3.390625q1.171875 -1.265625 3.078125 -1.265625q1.765625 0 2.71875 1.03125q0.953125 1.03125 0.953125 2.921875l0 0.796875zm-1.421875 -1.125q-0.015625 -1.15625 -0.59375 -1.78125q-0.5625 -0.640625 -1.734375 -0.640625q-1.1875 0 -1.890625 0.703125q-0.6875 0.6875 -0.78125 1.71875l5.0 0zm14.625 -3.390625l-2.265625 8.734375l-1.359375 0l-2.25 -6.734375l-2.21875 6.734375l-1.359375 0l-2.296875 -8.734375l1.53125 0l1.609375 6.765625l2.171875 -6.765625l1.21875 0l2.234375 6.765625l1.515625 -6.765625l1.46875 0zm8.90625 8.734375l-1.46875 0l0 -0.9375q-0.1875 0.140625 -0.53125 0.375q-0.328125 0.234375 -0.640625 0.375q-0.359375 0.1875 -0.84375 0.3125q-0.46875 0.125 -1.109375 0.125q-1.1875 0 -2.015625 -0.78125q-0.8125 -0.796875 -0.8125 -2.0q0 -1.0 0.421875 -1.609375q0.4375 -0.609375 1.21875 -0.96875q0.796875 -0.34375 1.90625 -0.46875q1.125 -0.125 2.40625 -0.1875l0 -0.234375q0 -0.5 -0.171875 -0.828125q-0.171875 -0.328125 -0.5 -0.515625q-0.3125 -0.171875 -0.75 -0.234375q-0.4375 -0.0625 -0.921875 -0.0625q-0.578125 0 -1.296875 0.15625q-0.703125 0.140625 -1.453125 0.4375l-0.078125 0l0 -1.5q0.421875 -0.109375 1.234375 -0.25q0.8125 -0.140625 1.609375 -0.140625q0.921875 0 1.59375 0.15625q0.6875 0.140625 1.1875 0.515625q0.5 0.359375 0.75 0.9375q0.265625 0.5625 0.265625 1.40625l0 5.921875zm-1.46875 -2.15625l0 -2.421875q-0.671875 0.03125 -1.578125 0.109375q-0.90625 0.078125 -1.4375 0.234375q-0.640625 0.171875 -1.03125 0.5625q-0.390625 0.375 -0.390625 1.03125q0 0.75 0.453125 1.140625q0.453125 0.375 1.390625 0.375q0.765625 0 1.40625 -0.296875q0.640625 -0.3125 1.1875 -0.734375zm9.73436 -4.96875l-0.078125 0q-0.328125 -0.078125 -0.640625 -0.109375q-0.296875 -0.046875 -0.71875 -0.046875q-0.6875 0 -1.3281097 0.3125q-0.625 0.296875 -1.203125 0.765625l0 6.203125l-1.46875 0l0 -8.734375l1.46875 0l0 1.296875q0.875 -0.703125 1.5312347 -1.0q0.671875 -0.296875 1.375 -0.296875q0.375 0 0.546875 0.03125q0.171875 0.015625 0.515625 0.0625l0 1.515625zm8.46875 7.125l-1.46875 0l0 -0.921875q-0.640625 0.546875 -1.328125 0.859375q-0.6875 0.3125 -1.484375 0.3125q-1.5625 0 -2.484375 -1.203125q-0.921875 -1.21875 -0.921875 -3.34375q0 -1.109375 0.3125 -1.96875q0.328125 -0.875 0.859375 -1.484375q0.53125 -0.59375 1.234375 -0.90625q0.71875 -0.3125 1.46875 -0.3125q0.6875 0 1.21875 0.140625q0.53125 0.140625 1.125 0.453125l0 -3.781252l1.46875 0l0 12.156252zm-1.46875 -2.15625l0 -5.0q-0.59375 -0.265625 -1.0625 -0.359375q-0.46875 -0.109375 -1.03125 -0.109375q-1.234375 0 -1.921875 0.859375q-0.6875 0.859375 -0.6875 2.4375q0 1.546875 0.53125 2.359375q0.53125 0.8125 1.703125 0.8125q0.625 0 1.265625 -0.28125q0.640625 -0.28125 1.203125 -0.71875z" fill-rule="nonzero"></path><path fill="#000000" fill-opacity="0.0" d="m329.3491 17.170603l109.165344 0l0 37.039368l-109.165344 0z" fill-rule="evenodd"></path><path fill="#c74a2d" d="m354.10364 41.530605l-1.546875 0l0 -10.031252l-3.234375 6.828127l-0.921875 0l-3.203125 -6.828127l0 10.031252l-1.453125 0l0 -11.640627l2.109375 0l3.109375 6.484377l3.0 -6.484377l2.140625 0l0 11.640627zm10.453125 -4.359375q0 2.125 -1.09375 3.375q-1.09375 1.234375 -2.9375 1.234375q-1.84375 0 -2.9375 -1.234375q-1.09375 -1.25 -1.09375 -3.375q0 -2.140625 1.09375 -3.375q1.09375 -1.234375 2.9375 -1.234375q1.84375 0 2.9375 1.234375q1.09375 1.234375 1.09375 3.375zm-1.515625 0q0 -1.703125 -0.671875 -2.515625q-0.65625 -0.828125 -1.84375 -0.828125q-1.1875 0 -1.859375 0.828125q-0.65625 0.8125 -0.65625 2.515625q0 1.640625 0.65625 2.484375q0.671875 0.84375 1.859375 0.84375q1.171875 0 1.84375 -0.828125q0.671875 -0.84375 0.671875 -2.5zm8.3203125 4.28125q-0.421875 0.109375 -0.90625 0.171875q-0.484375 0.078125 -0.875 0.078125q-1.328125 0 -2.03125 -0.71875q-0.6875 -0.71875 -0.6875 -2.3125l0 -4.640625l-1.0 0l0 -1.234375l1.0 0l0 -2.500002l1.46875 0l0 2.500002l3.03125 0l0 1.234375l-3.03125 0l0 3.984375q0 0.6875 0.03125 1.078125q0.03125 0.375 0.21875 0.71875q0.171875 0.3125 0.46875 0.453125q0.296875 0.140625 0.921875 0.140625q0.359375 0 0.75 -0.09375q0.390625 -0.109375 0.5625 -0.1875l0.078125 0l0 1.328125zm3.3515625 -10.109377l-1.65625 0l0 -1.53125l1.65625 0l0 1.53125zm-0.09375 10.187502l-1.46875 0l0 -8.734375l1.46875 0l0 8.734375zm10.453125 -8.734375l-3.53125 8.734375l-1.484375 0l-3.5 -8.734375l1.59375 0l2.703125 6.953125l2.671875 -6.953125l1.546875 0zm8.703125 8.734375l-1.46875 0l0 -0.9375q-0.1875 0.140625 -0.53125 0.375q-0.328125 0.234375 -0.640625 0.375q-0.359375 0.1875 -0.84375 0.3125q-0.46875 0.125 -1.109375 0.125q-1.1875 0 -2.015625 -0.78125q-0.8125 -0.796875 -0.8125 -2.0q0 -1.0 0.421875 -1.609375q0.4375 -0.609375 1.21875 -0.96875q0.796875 -0.34375 1.90625 -0.46875q1.125 -0.125 2.40625 -0.1875l0 -0.234375q0 -0.5 -0.171875 -0.828125q-0.171875 -0.328125 -0.5 -0.515625q-0.3125 -0.171875 -0.75 -0.234375q-0.4375 -0.0625 -0.921875 -0.0625q-0.578125 0 -1.296875 0.15625q-0.703125 0.140625 -1.453125 0.4375l-0.078125 0l0 -1.5q0.421875 -0.109375 1.234375 -0.25q0.8125 -0.140625 1.609375 -0.140625q0.921875 0 1.59375 0.15625q0.6875 0.140625 1.1875 0.515625q0.5 0.359375 0.75 0.9375q0.265625 0.5625 0.265625 1.40625l0 5.921875zm-1.46875 -2.15625l0 -2.421875q-0.671875 0.03125 -1.578125 0.109375q-0.90625 0.078125 -1.4375 0.234375q-0.640625 0.171875 -1.03125 0.5625q-0.390625 0.375 -0.390625 1.03125q0 0.75 0.453125 1.140625q0.453125 0.375 1.390625 0.375q0.765625 0 1.40625 -0.296875q0.640625 -0.3125 1.1875 -0.734375zm8.828125 2.078125q-0.421875 0.109375 -0.90625 0.171875q-0.484375 0.078125 -0.875 0.078125q-1.328125 0 -2.03125 -0.71875q-0.6875 -0.71875 -0.6875 -2.3125l0 -4.640625l-1.0 0l0 -1.234375l1.0 0l0 -2.500002l1.46875 0l0 2.500002l3.03125 0l0 1.234375l-3.03125 0l0 3.984375q0 0.6875 0.03125 1.078125q0.03125 0.375 0.21875 0.71875q0.171875 0.3125 0.46875 0.453125q0.296875 0.140625 0.921875 0.140625q0.359375 0 0.75 -0.09375q0.390625 -0.109375 0.5625 -0.1875l0.078125 0l0 1.328125zm3.3515625 -10.109377l-1.65625 0l0 -1.53125l1.65625 0l0 1.53125zm-0.09375 10.187502l-1.46875 0l0 -8.734375l1.46875 0l0 8.734375zm10.34375 -4.359375q0 2.125 -1.09375 3.375q-1.09375 1.234375 -2.9375 1.234375q-1.84375 0 -2.9375 -1.234375q-1.09375 -1.25 -1.09375 -3.375q0 -2.140625 1.09375 -3.375q1.09375 -1.234375 2.9375 -1.234375q1.84375 0 2.9375 1.234375q1.09375 1.234375 1.09375 3.375zm-1.515625 0q0 -1.703125 -0.671875 -2.515625q-0.65625 -0.828125 -1.84375 -0.828125q-1.1875 0 -1.859375 0.828125q-0.65625 0.8125 -0.65625 2.515625q0 1.640625 0.65625 2.484375q0.671875 0.84375 1.859375 0.84375q1.171875 0 1.84375 -0.828125q0.671875 -0.84375 0.671875 -2.5zm11.0859375 4.359375l-1.46875 0l0 -4.96875q0 -0.609375 -0.078125 -1.125q-0.0625 -0.53125 -0.25 -0.828125q-0.203125 -0.328125 -0.578125 -0.484375q-0.359375 -0.171875 -0.9375 -0.171875q-0.609375 0 -1.265625 0.296875q-0.65625 0.296875 -1.25 0.765625l0 6.515625l-1.46875 0l0 -8.734375l1.46875 0l0 0.96875q0.6875 -0.5625 1.421875 -0.875q0.734375 -0.328125 1.5 -0.328125q1.421875 0 2.15625 0.859375q0.75 0.84375 0.75 2.4375l0 5.671875z" fill-rule="nonzero"></path><path fill="#000000" fill-opacity="0.0" d="m103.94226 35.69029l66.11023 0" fill-rule="evenodd"></path><path stroke="#6aa84f" stroke-width="2.0" stroke-linejoin="round" stroke-linecap="butt" d="m103.94226 35.69029l54.11023 0" fill-rule="evenodd"></path><path fill="#6aa84f" stroke="#6aa84f" stroke-width="2.0" stroke-linecap="butt" d="m158.05249 38.993755l9.076202 -3.3034668l-9.076202 -3.303463z" fill-rule="evenodd"></path><path fill="#000000" fill-opacity="0.0" d="m263.22833 35.69029l66.11026 0" fill-rule="evenodd"></path><path stroke="#6aa84f" stroke-width="2.0" stroke-linejoin="round" stroke-linecap="butt" d="m263.22833 35.69029l54.11026 0" fill-rule="evenodd"></path><path fill="#6aa84f" stroke="#6aa84f" stroke-width="2.0" stroke-linecap="butt" d="m317.3386 38.993755l9.076172 -3.3034668l-9.076172 -3.303463z" fill-rule="evenodd"></path><path fill="#000000" fill-opacity="0.0" d="m438.51443 35.69029l24.998444 0l0 40.564304l-456.66592 0l0 -40.501312l24.990313 0" fill-rule="evenodd"></path><path stroke="#6aa84f" stroke-width="2.0" stroke-linejoin="round" stroke-linecap="butt" d="m438.51443 35.69029l24.998444 0l0 40.564304l-456.66592 0l0 -40.501312l18.136137 0" fill-rule="evenodd"></path><path fill="#6aa84f" stroke="#6aa84f" stroke-width="2.0" stroke-linecap="butt" d="m24.983097 35.75328l-2.2491665 2.2491684l6.179535 -2.2491684l-6.179535 -2.2491684z" fill-rule="evenodd"></path></g></svg>

