<?xml version="1.0" standalone="no"?>
<!DOCTYPE svg PUBLIC "-//W3C//DTD SVG 20010904//EN"
 "http://www.w3.org/TR/2001/REC-SVG-20010904/DTD/svg10.dtd">
<svg version="1.0" xmlns="http://www.w3.org/2000/svg"
 width="457.000000pt" height="457.000000pt" viewBox="0 0 457.000000 457.000000"
 preserveAspectRatio="xMidYMid meet">
<metadata>
Created by potrace 1.11, written by Peter Selinger 2001-2013
</metadata>
<g transform="translate(0.000000,457.000000) scale(0.100000,-0.100000)"
fill="#000000" stroke="none">
<path d="M599 4299 c-9 -9 -34 -47 -55 -84 -22 -37 -47 -81 -58 -98 -27 -47
-221 -378 -284 -487 -154 -264 -154 -263 -108 -279 11 -4 731 -7 1598 -7 1387
1 1579 3 1591 16 30 32 527 898 527 918 0 11 -6 24 -12 28 -7 5 -726 8 -1598
8 -1456 1 -1586 0 -1601 -15z"/>
<path d="M3902 4062 c-15 -13 -187 -316 -370 -652 -13 -25 -32 -58 -42 -75
-10 -16 -32 -57 -50 -90 -84 -153 -171 -311 -180 -325 -6 -8 -13 -22 -17 -30
-4 -8 -24 -44 -44 -80 -20 -36 -50 -90 -67 -120 -16 -30 -42 -77 -57 -105
-185 -330 -159 -284 -373 -670 -85 -154 -166 -300 -180 -325 -151 -272 -196
-357 -195 -370 1 -12 87 -167 318 -575 44 -78 62 -111 124 -223 66 -118 87
-140 114 -119 13 9 685 1211 720 1287 4 8 17 31 28 50 12 19 37 64 57 100 19
36 114 207 210 380 96 173 193 349 215 390 22 41 51 92 64 112 13 21 23 39 23
41 0 2 61 114 134 247 117 210 133 246 124 264 -14 26 -330 583 -366 646 -35
60 -65 113 -104 183 -38 70 -58 84 -86 59z"/>
<path d="M917 3183 c-1 -1 -187 -3 -412 -5 -372 -3 -412 -5 -427 -20 -21 -21
-21 -23 57 -163 34 -60 80 -144 102 -185 22 -41 52 -95 66 -120 33 -60 122
-222 160 -290 16 -30 41 -75 55 -100 106 -193 201 -365 230 -420 19 -36 52
-94 72 -130 20 -36 56 -101 80 -145 24 -44 62 -114 85 -155 23 -41 59 -106 80
-145 22 -38 40 -72 40 -75 0 -3 12 -25 27 -50 14 -25 65 -117 114 -205 48 -88
95 -173 104 -190 9 -16 74 -135 144 -263 71 -128 135 -236 145 -241 9 -4 81
-7 161 -5 80 1 305 3 500 4 211 2 360 7 368 13 23 18 12 51 -72 201 -46 83
-99 178 -116 211 -18 33 -41 74 -50 90 -10 17 -31 55 -48 85 -16 30 -87 159
-157 285 -70 127 -138 250 -152 275 -13 25 -28 52 -33 60 -11 18 -28 48 -336
605 -130 237 -251 455 -267 485 -108 197 -320 576 -327 583 -6 7 -187 16 -193
10z"/>
</g>
</svg>
