<?xml version="1.0" standalone="yes"?>

<svg version="1.1" viewBox="0.0 0.0 446.501312335958 415.2178477690289" fill="none" stroke="none" stroke-linecap="square" stroke-miterlimit="10" xmlns="http://www.w3.org/2000/svg" xmlns:xlink="http://www.w3.org/1999/xlink"><clipPath id="p.0"><path d="m0 0l446.5013 0l0 415.21783l-446.5013 0l0 -415.21783z" clip-rule="nonzero"></path></clipPath><g clip-path="url(#p.0)"><path fill="#000000" fill-opacity="0.0" d="m0 0l446.5013 0l0 415.21783l-446.5013 0z" fill-rule="evenodd"></path><path fill="#007faf" d="m7.23727 99.0138l52.08904 -89.85827l315.78497 0l-52.08905 89.85827z" fill-rule="evenodd"></path><path stroke="#007faf" stroke-width="8.0" stroke-linejoin="round" stroke-linecap="round" d="m7.23727 99.0138l52.08904 -89.85827l315.78497 0l-52.08905 89.85827z" fill-rule="evenodd"></path><path fill="#f6931e" d="m390.07898 33.20793l49.922882 88.98436l-155.74966 282.4802l-49.922897 -88.984344z" fill-rule="evenodd"></path><path stroke="#f6931e" stroke-width="8.0" stroke-linejoin="round" stroke-linecap="round" d="m390.07898 33.20793l49.922882 88.98436l-155.74966 282.4802l-49.922897 -88.984344z" fill-rule="evenodd"></path><path fill="#c74a2d" d="m261.48444 405.14767l-98.49568 0.95181274l-155.74054 -282.46362l98.49568 -0.9518204z" fill-rule="evenodd"></path><path stroke="#c74a2d" stroke-width="8.0" stroke-linejoin="round" stroke-linecap="round" d="m261.48444 405.14767l-98.49568 0.95181274l-155.74054 -282.46362l98.49568 -0.9518204z" fill-rule="evenodd"></path></g></svg>

